<svg height="512pt" viewBox="-53 0 512 512" width="512pt" xmlns="http://www.w3.org/2000/svg"><path d="m257.222656 314.6875-43.324218 18.613281c-6.972657 2.996094-14.867188 2.996094-21.839844 0l-43.320313-18.613281c-6.972656-2.996094-14.867187-2.996094-21.839843 0l-43.320313 18.613281c-6.96875 2.996094-14.867187 2.996094-21.839844 0l-36.6875-15.765625c-8.304687-3.566406-17.550781 2.523438-17.550781 11.5625v148.929688c0 14.621094 11.851562 26.472656 26.472656 26.472656h338.027344c14.621094 0 26.472656-11.851562 26.472656-26.472656v-148.929688c0-9.039062-9.246094-15.128906-17.550781-11.5625l-36.695313 15.765625c-6.972656 2.996094-14.867187 2.996094-21.839843 0l-43.328125-18.613281c-6.96875-2.996094-14.863282-2.996094-21.835938 0zm0 0" fill="#ebeef2"/><path d="m380.925781 317.535156-35.113281 15.085938v171.878906h26.1875c14.621094 0 26.472656-11.851562 26.472656-26.472656v-148.929688c0-9.039062-9.246094-15.128906-17.546875-11.5625zm0 0" fill="#d0d0e0"/><path d="m281.722656 7.5h-247.75c-14.621094 0-26.472656 11.851562-26.472656 26.472656l.035156 225.1875c.003906 4.953125 2.910156 9.449219 7.433594 11.476563l46.605469 20.914062c7.035156 3.160157 15.070312 3.234375 22.164062.210938l43.183594-18.394531c6.980469-2.972657 14.875-2.949219 21.839844.066406l43.261719 18.75c6.960937 3.015625 14.859374 3.042968 21.839843.070312l43.378907-18.480468c6.984374-2.976563 14.878906-2.949219 21.839843.066406l43.269531 18.75c6.960938 3.015625 14.859376 3.042968 21.839844.066406l46.628906-19.859375c4.640626-1.976563 7.652344-6.535156 7.652344-11.578125v-136.96875zm0 0" fill="#ebeef2"/><path d="m302.722656 28.496094v119.746094c0 11.046874 8.953125 20.003906 20 20.003906h23.089844v123.722656l45.007812-19.171875c4.640626-1.976563 7.652344-6.53125 7.652344-11.574219v-136.972656zm0 0" fill="#d0d0e0"/><path d="m281.722656 7.5 116.75 116.75h-96.746094c-11.046874 0-20.003906-8.953125-20.003906-20.003906zm0 0" fill="#fd7b68"/><path d="m56 88.898438h131.152344c4.140625 0 7.5-3.355469 7.5-7.5 0-4.140626-3.359375-7.5-7.5-7.5h-131.152344c-4.144531 0-7.5 3.359374-7.5 7.5 0 4.144531 3.355469 7.5 7.5 7.5zm0 0"/><path d="m56 131.75h131.152344c4.140625 0 7.5-3.359375 7.5-7.5s-3.359375-7.5-7.5-7.5h-131.152344c-4.144531 0-7.5 3.359375-7.5 7.5s3.355469 7.5 7.5 7.5zm0 0"/><path d="m337.976562 214.503906h-281.976562c-4.144531 0-7.5 3.355469-7.5 7.5 0 4.140625 3.355469 7.5 7.5 7.5h281.976562c4.140626 0 7.5-3.359375 7.5-7.5 0-4.144531-3.359374-7.5-7.5-7.5zm0 0"/><path d="m337.976562 173.839844h-281.976562c-4.144531 0-7.5 3.359375-7.5 7.5s3.355469 7.5 7.5 7.5h281.976562c4.140626 0 7.5-3.359375 7.5-7.5s-3.359374-7.5-7.5-7.5zm0 0"/><path d="m56 444.484375h281.976562c4.140626 0 7.5-3.355469 7.5-7.5 0-4.140625-3.359374-7.5-7.5-7.5h-281.976562c-4.144531 0-7.5 3.359375-7.5 7.5 0 4.144531 3.355469 7.5 7.5 7.5zm0 0"/><path d="m56 403.820312h281.976562c4.140626 0 7.5-3.355468 7.5-7.5 0-4.140624-3.359374-7.5-7.5-7.5h-281.976562c-4.144531 0-7.5 3.359376-7.5 7.5 0 4.144532 3.355469 7.5 7.5 7.5zm0 0"/><path d="m396.9375 312.324219c-5.65625-3.726563-12.746094-4.351563-18.972656-1.679688l-36.699219 15.765625c-5.058594 2.175782-10.859375 2.175782-15.914063 0l-43.332031-18.613281c-8.820312-3.789063-18.9375-3.789063-27.757812 0l-43.324219 18.613281c-5.058594 2.171875-10.859375 2.171875-15.917969 0l-43.320312-18.613281c-8.820313-3.792969-18.9375-3.792969-27.761719 0l-43.316406 18.613281c-5.058594 2.171875-10.859375 2.171875-15.917969 0l-36.691406-15.765625c-6.222657-2.675781-13.316407-2.046875-18.976563 1.679688-5.65625 3.726562-9.035156 9.996093-9.035156 16.773437v68.867188c0 4.140625 3.359375 7.5 7.5 7.5 4.144531 0 7.5-3.359375 7.5-7.5v-68.867188c0-2.472656 1.601562-3.792968 2.289062-4.246094.6875-.453124 2.53125-1.402343 4.800782-.425781l36.691406 15.765625c8.820312 3.789063 18.941406 3.789063 27.761719 0l43.316406-18.617187c5.058594-2.171875 10.859375-2.171875 15.917969 0l43.324218 18.617187c8.820313 3.789063 18.9375 3.789063 27.757813 0l43.324219-18.617187c5.058594-2.171875 10.859375-2.171875 15.917968 0l43.328126 18.617187c8.820312 3.789063 18.9375 3.789063 27.757812 0l36.699219-15.765625c2.269531-.976562 4.113281-.027343 4.800781.421875.6875.453125 2.285156 1.773438 2.285156 4.246094v148.929688c0 10.464843-8.507812 18.972656-18.972656 18.972656h-338.027344c-10.460937 0-18.972656-8.507813-18.972656-18.972656v-45.164063c0-4.140625-3.359375-7.5-7.5-7.5s-7.5 3.359375-7.5 7.5v45.164063c0 18.738281 15.242188 33.976562 33.972656 33.976562h338.027344c18.734375 0 33.972656-15.238281 33.972656-33.972656v-148.929688c0-6.777344-3.375-13.046875-9.035156-16.773437zm0 0"/><path d="m398.472656 187.515625c4.144532 0 7.5-3.359375 7.5-7.5v-55.765625c0-1.988281-.789062-3.898438-2.195312-5.304688l-116.75-116.75c-1.40625-1.40625-3.3125-2.195312-5.304688-2.195312h-247.75c-18.730468 0-33.972656 15.238281-33.972656 33.972656l.0351562 225.1875c0 7.898438 4.6562498 15.085938 11.8632818 18.320313l46.605468 20.914062c8.914063 4 19.183594 4.097657 28.175782.269531l43.179687-18.394531c5.066406-2.160156 10.867187-2.140625 15.917969.046875l43.261718 18.75c8.8125 3.816406 18.929688 3.847656 27.761719.085938l43.382813-18.476563c5.0625-2.160156 10.863281-2.140625 15.917968.046875l43.269532 18.75c4.4375 1.925782 9.207031 2.886719 13.980468 2.886719 4.695313 0 9.394532-.933594 13.777344-2.800781l46.632813-19.863282c7.417969-3.160156 12.210937-10.410156 12.210937-18.476562v-46.308594c0-4.140625-3.355468-7.5-7.5-7.5-4.144531 0-7.5 3.359375-7.5 7.5v46.308594c0 2.042969-1.210937 3.878906-3.089844 4.675781l-46.632812 19.863281c-5.0625 2.15625-10.867188 2.140626-15.914062-.046874l-43.273438-18.75c-8.808594-3.820313-18.925781-3.851563-27.757812-.085938l-43.382813 18.476562c-5.066406 2.160157-10.867187 2.140626-15.917969-.046874l-43.261718-18.75c-8.808594-3.816407-18.929688-3.847657-27.761719-.085938l-43.179688 18.394531c-5.15625 2.195313-11.042969 2.140625-16.15625-.152343l-46.609375-20.914063c-1.820312-.820313-3-2.640625-3-4.636719l-.035156-225.1875c0-10.460937 8.511719-18.972656 18.972656-18.972656h240.25v89.246094c0 15.167968 12.339844 27.503906 27.503906 27.503906h89.246094v48.265625c0 4.140625 3.359375 7.5 7.5 7.5zm-109.25-83.269531v-78.640625l91.144532 91.144531h-78.640626c-6.894531 0-12.503906-5.609375-12.503906-12.503906zm0 0"/></svg>